<mxfile host="Electron" modified="2024-03-18T03:04:56.792Z" agent="Mozilla/5.0 (Windows NT 10.0; Win64; x64) AppleWebKit/537.36 (KHTML, like Gecko) draw.io/21.2.8 Chrome/112.0.5615.165 Electron/24.2.0 Safari/537.36" etag="Y-J4aNkvYruZsvwe1ksQ" version="21.2.8" type="device">
  <diagram name="Page-1" id="fsjDqacRQV7oY880uKDh">
    <mxGraphModel dx="1420" dy="840" grid="1" gridSize="10" guides="1" tooltips="1" connect="1" arrows="1" fold="1" page="0" pageScale="1" pageWidth="850" pageHeight="1100" math="0" shadow="0">
      <root>
        <mxCell id="0" />
        <mxCell id="1" parent="0" />
        <mxCell id="njJQ0EzZRr9ED-4JYnl1-1" value="Engine" style="rounded=1;whiteSpace=wrap;html=1;fontFamily=Montserrat;fontSource=https%3A%2F%2Ffonts.googleapis.com%2Fcss%3Ffamily%3DMontserrat;absoluteArcSize=1;arcSize=8;fillColor=#f8cecc;strokeColor=#b85450;" parent="1" vertex="1">
          <mxGeometry x="340" y="220" width="100" height="470" as="geometry" />
        </mxCell>
        <mxCell id="njJQ0EzZRr9ED-4JYnl1-2" value="AssetManager" style="rounded=1;whiteSpace=wrap;html=1;fontFamily=Montserrat;fontSource=https%3A%2F%2Ffonts.googleapis.com%2Fcss%3Ffamily%3DMontserrat;absoluteArcSize=1;arcSize=8;fillColor=#ffe6cc;strokeColor=#d79b00;" parent="1" vertex="1">
          <mxGeometry x="450" y="500" width="470" height="30" as="geometry" />
        </mxCell>
        <mxCell id="njJQ0EzZRr9ED-4JYnl1-3" value="ECSManager" style="rounded=1;whiteSpace=wrap;html=1;fontFamily=Montserrat;fontSource=https%3A%2F%2Ffonts.googleapis.com%2Fcss%3Ffamily%3DMontserrat;absoluteArcSize=1;arcSize=8;fillColor=#ffe6cc;strokeColor=#d79b00;" parent="1" vertex="1">
          <mxGeometry x="450" y="620" width="470" height="30" as="geometry" />
        </mxCell>
        <mxCell id="njJQ0EzZRr9ED-4JYnl1-4" value="InputManager" style="rounded=1;whiteSpace=wrap;html=1;fontFamily=Montserrat;fontSource=https%3A%2F%2Ffonts.googleapis.com%2Fcss%3Ffamily%3DMontserrat;absoluteArcSize=1;arcSize=8;fillColor=#ffe6cc;strokeColor=#d79b00;" parent="1" vertex="1">
          <mxGeometry x="450" y="420" width="310" height="70" as="geometry" />
        </mxCell>
        <mxCell id="njJQ0EzZRr9ED-4JYnl1-5" value="PhysicsManager" style="rounded=1;whiteSpace=wrap;html=1;fontFamily=Montserrat;fontSource=https%3A%2F%2Ffonts.googleapis.com%2Fcss%3Ffamily%3DMontserrat;absoluteArcSize=1;arcSize=8;fillColor=#ffe6cc;strokeColor=#d79b00;" parent="1" vertex="1">
          <mxGeometry x="450" y="540" width="470" height="30" as="geometry" />
        </mxCell>
        <mxCell id="njJQ0EzZRr9ED-4JYnl1-6" value="SoundManager" style="rounded=1;whiteSpace=wrap;html=1;fontFamily=Montserrat;fontSource=https%3A%2F%2Ffonts.googleapis.com%2Fcss%3Ffamily%3DMontserrat;absoluteArcSize=1;arcSize=8;fillColor=#ffe6cc;strokeColor=#d79b00;" parent="1" vertex="1">
          <mxGeometry x="450" y="580" width="470" height="30" as="geometry" />
        </mxCell>
        <mxCell id="njJQ0EzZRr9ED-4JYnl1-7" value="WindowManager" style="rounded=1;whiteSpace=wrap;html=1;fontFamily=Montserrat;fontSource=https%3A%2F%2Ffonts.googleapis.com%2Fcss%3Ffamily%3DMontserrat;absoluteArcSize=1;arcSize=8;fillColor=#ffe6cc;strokeColor=#d79b00;" parent="1" vertex="1">
          <mxGeometry x="450" y="260" width="150" height="150" as="geometry" />
        </mxCell>
        <mxCell id="njJQ0EzZRr9ED-4JYnl1-8" value="RenderManager" style="rounded=1;whiteSpace=wrap;html=1;fontFamily=Montserrat;fontSource=https%3A%2F%2Ffonts.googleapis.com%2Fcss%3Ffamily%3DMontserrat;absoluteArcSize=1;arcSize=8;fillColor=#ffe6cc;strokeColor=#d79b00;" parent="1" vertex="1">
          <mxGeometry x="450" y="220" width="310" height="30" as="geometry" />
        </mxCell>
        <mxCell id="njJQ0EzZRr9ED-4JYnl1-9" value="Engine" style="rounded=1;whiteSpace=wrap;html=1;fontFamily=Montserrat;fontSource=https%3A%2F%2Ffonts.googleapis.com%2Fcss%3Ffamily%3DMontserrat;absoluteArcSize=1;arcSize=8;fillColor=#f8cecc;strokeColor=#b85450;" parent="1" vertex="1">
          <mxGeometry x="340" width="100" height="110" as="geometry" />
        </mxCell>
        <mxCell id="njJQ0EzZRr9ED-4JYnl1-10" value="EngineComponent" style="rounded=1;whiteSpace=wrap;html=1;fontFamily=Montserrat;fontSource=https%3A%2F%2Ffonts.googleapis.com%2Fcss%3Ffamily%3DMontserrat;absoluteArcSize=1;arcSize=8;fillColor=#ffe6cc;strokeColor=#d79b00;" parent="1" vertex="1">
          <mxGeometry x="640" width="150" height="110" as="geometry" />
        </mxCell>
        <mxCell id="njJQ0EzZRr9ED-4JYnl1-11" value="Emitter" style="rounded=1;whiteSpace=wrap;html=1;fontFamily=Montserrat;fontSource=https%3A%2F%2Ffonts.googleapis.com%2Fcss%3Ffamily%3DMontserrat;absoluteArcSize=1;arcSize=8;fillColor=#d5e8d4;strokeColor=#82b366;" parent="1" vertex="1">
          <mxGeometry x="490" y="40" width="100" height="30" as="geometry" />
        </mxCell>
        <mxCell id="njJQ0EzZRr9ED-4JYnl1-12" value="Logger" style="rounded=1;whiteSpace=wrap;html=1;fontFamily=Montserrat;fontSource=https%3A%2F%2Ffonts.googleapis.com%2Fcss%3Ffamily%3DMontserrat;absoluteArcSize=1;arcSize=8;fillColor=#dae8fc;strokeColor=#6c8ebf;" parent="1" vertex="1">
          <mxGeometry x="490" width="100" height="30" as="geometry" />
        </mxCell>
        <mxCell id="njJQ0EzZRr9ED-4JYnl1-19" style="edgeStyle=elbowEdgeStyle;shape=connector;rounded=0;orthogonalLoop=1;jettySize=auto;html=1;labelBackgroundColor=default;strokeColor=default;fontFamily=Helvetica;fontSize=11;fontColor=default;endArrow=oval;elbow=vertical;endFill=1;" parent="1" source="njJQ0EzZRr9ED-4JYnl1-9" target="njJQ0EzZRr9ED-4JYnl1-10" edge="1">
          <mxGeometry relative="1" as="geometry">
            <Array as="points">
              <mxPoint x="480" y="90" />
            </Array>
          </mxGeometry>
        </mxCell>
        <mxCell id="njJQ0EzZRr9ED-4JYnl1-22" style="edgeStyle=elbowEdgeStyle;shape=connector;rounded=0;orthogonalLoop=1;jettySize=auto;elbow=vertical;html=1;labelBackgroundColor=default;strokeColor=default;fontFamily=Helvetica;fontSize=11;fontColor=default;endArrow=oval;endFill=1;" parent="1" source="njJQ0EzZRr9ED-4JYnl1-9" target="njJQ0EzZRr9ED-4JYnl1-11" edge="1">
          <mxGeometry relative="1" as="geometry" />
        </mxCell>
        <mxCell id="njJQ0EzZRr9ED-4JYnl1-23" style="edgeStyle=elbowEdgeStyle;shape=connector;rounded=0;orthogonalLoop=1;jettySize=auto;elbow=vertical;html=1;labelBackgroundColor=default;strokeColor=default;fontFamily=Helvetica;fontSize=11;fontColor=default;endArrow=oval;endFill=1;" parent="1" source="njJQ0EzZRr9ED-4JYnl1-9" target="njJQ0EzZRr9ED-4JYnl1-12" edge="1">
          <mxGeometry relative="1" as="geometry" />
        </mxCell>
        <mxCell id="njJQ0EzZRr9ED-4JYnl1-24" style="edgeStyle=elbowEdgeStyle;shape=connector;rounded=0;orthogonalLoop=1;jettySize=auto;elbow=vertical;html=1;labelBackgroundColor=default;strokeColor=default;fontFamily=Helvetica;fontSize=11;fontColor=default;endArrow=oval;endFill=1;dashed=1;" parent="1" source="njJQ0EzZRr9ED-4JYnl1-10" target="njJQ0EzZRr9ED-4JYnl1-11" edge="1">
          <mxGeometry relative="1" as="geometry" />
        </mxCell>
        <mxCell id="njJQ0EzZRr9ED-4JYnl1-25" style="edgeStyle=elbowEdgeStyle;shape=connector;rounded=0;orthogonalLoop=1;jettySize=auto;elbow=vertical;html=1;labelBackgroundColor=default;strokeColor=default;fontFamily=Helvetica;fontSize=11;fontColor=default;endArrow=oval;endFill=1;dashed=1;" parent="1" source="njJQ0EzZRr9ED-4JYnl1-10" target="njJQ0EzZRr9ED-4JYnl1-12" edge="1">
          <mxGeometry relative="1" as="geometry" />
        </mxCell>
        <mxCell id="cY_B4P1_SqbaMyudtBFb-1" value="Window" style="rounded=1;whiteSpace=wrap;html=1;fontFamily=Montserrat;fontSource=https%3A%2F%2Ffonts.googleapis.com%2Fcss%3Ffamily%3DMontserrat;absoluteArcSize=1;arcSize=8;fillColor=#d5e8d4;strokeColor=#82b366;" parent="1" vertex="1">
          <mxGeometry x="610" y="260" width="150" height="150" as="geometry" />
        </mxCell>
        <mxCell id="cY_B4P1_SqbaMyudtBFb-2" value="Screen" style="rounded=1;whiteSpace=wrap;html=1;fontFamily=Montserrat;fontSource=https%3A%2F%2Ffonts.googleapis.com%2Fcss%3Ffamily%3DMontserrat;absoluteArcSize=1;arcSize=8;fillColor=#dae8fc;strokeColor=#6c8ebf;" parent="1" vertex="1">
          <mxGeometry x="770" y="260" width="150" height="110" as="geometry" />
        </mxCell>
        <mxCell id="cY_B4P1_SqbaMyudtBFb-3" value="FrameManager" style="rounded=1;whiteSpace=wrap;html=1;fontFamily=Montserrat;fontSource=https%3A%2F%2Ffonts.googleapis.com%2Fcss%3Ffamily%3DMontserrat;absoluteArcSize=1;arcSize=8;fillColor=#dae8fc;strokeColor=#6c8ebf;" parent="1" vertex="1">
          <mxGeometry x="770" y="380" width="150" height="30" as="geometry" />
        </mxCell>
        <mxCell id="cY_B4P1_SqbaMyudtBFb-4" value="Keyboard" style="rounded=1;whiteSpace=wrap;html=1;fontFamily=Montserrat;fontSource=https%3A%2F%2Ffonts.googleapis.com%2Fcss%3Ffamily%3DMontserrat;absoluteArcSize=1;arcSize=8;fillColor=#dae8fc;strokeColor=#6c8ebf;" parent="1" vertex="1">
          <mxGeometry x="770" y="420" width="150" height="30" as="geometry" />
        </mxCell>
        <mxCell id="cY_B4P1_SqbaMyudtBFb-5" value="Mouse" style="rounded=1;whiteSpace=wrap;html=1;fontFamily=Montserrat;fontSource=https%3A%2F%2Ffonts.googleapis.com%2Fcss%3Ffamily%3DMontserrat;absoluteArcSize=1;arcSize=8;fillColor=#dae8fc;strokeColor=#6c8ebf;" parent="1" vertex="1">
          <mxGeometry x="770" y="460" width="150" height="30" as="geometry" />
        </mxCell>
        <mxCell id="cY_B4P1_SqbaMyudtBFb-6" value="Renderer" style="rounded=1;whiteSpace=wrap;html=1;fontFamily=Montserrat;fontSource=https%3A%2F%2Ffonts.googleapis.com%2Fcss%3Ffamily%3DMontserrat;absoluteArcSize=1;arcSize=8;fillColor=#dae8fc;strokeColor=#6c8ebf;" parent="1" vertex="1">
          <mxGeometry x="770" y="220" width="150" height="30" as="geometry" />
        </mxCell>
        <mxCell id="FNdyg-D8nHnKbVSnXUow-1" value="UIManager" style="rounded=1;whiteSpace=wrap;html=1;fontFamily=Montserrat;fontSource=https%3A%2F%2Ffonts.googleapis.com%2Fcss%3Ffamily%3DMontserrat;absoluteArcSize=1;arcSize=8;fillColor=#ffe6cc;strokeColor=#d79b00;" vertex="1" parent="1">
          <mxGeometry x="450" y="660" width="470" height="30" as="geometry" />
        </mxCell>
        <mxCell id="FNdyg-D8nHnKbVSnXUow-2" value="pygame.Display" style="rounded=1;whiteSpace=wrap;html=1;fontFamily=Montserrat;fontSource=https%3A%2F%2Ffonts.googleapis.com%2Fcss%3Ffamily%3DMontserrat;absoluteArcSize=1;arcSize=8;fillColor=#f5f5f5;strokeColor=#666666;fontColor=#333333;" vertex="1" parent="1">
          <mxGeometry x="930" y="260" width="470" height="30" as="geometry" />
        </mxCell>
        <mxCell id="FNdyg-D8nHnKbVSnXUow-4" value="RenderObject" style="rounded=1;whiteSpace=wrap;html=1;fontFamily=Montserrat;fontSource=https%3A%2F%2Ffonts.googleapis.com%2Fcss%3Ffamily%3DMontserrat;absoluteArcSize=1;arcSize=8;fillColor=#e1d5e7;strokeColor=#9673a6;" vertex="1" parent="1">
          <mxGeometry x="930" y="300" width="150" height="70" as="geometry" />
        </mxCell>
        <mxCell id="FNdyg-D8nHnKbVSnXUow-6" value="GLContext" style="rounded=1;whiteSpace=wrap;html=1;fontFamily=Montserrat;fontSource=https%3A%2F%2Ffonts.googleapis.com%2Fcss%3Ffamily%3DMontserrat;absoluteArcSize=1;arcSize=8;fillColor=#e1d5e7;strokeColor=#9673a6;" vertex="1" parent="1">
          <mxGeometry x="1090" y="300" width="150" height="30" as="geometry" />
        </mxCell>
        <mxCell id="FNdyg-D8nHnKbVSnXUow-8" value="moderngl.Context" style="rounded=1;whiteSpace=wrap;html=1;fontFamily=Montserrat;fontSource=https%3A%2F%2Ffonts.googleapis.com%2Fcss%3Ffamily%3DMontserrat;absoluteArcSize=1;arcSize=8;fillColor=#f5f5f5;strokeColor=#666666;fontColor=#333333;" vertex="1" parent="1">
          <mxGeometry x="1250" y="300" width="150" height="30" as="geometry" />
        </mxCell>
        <mxCell id="FNdyg-D8nHnKbVSnXUow-10" value="moderngl.Buffer" style="rounded=1;whiteSpace=wrap;html=1;fontFamily=Montserrat;fontSource=https%3A%2F%2Ffonts.googleapis.com%2Fcss%3Ffamily%3DMontserrat;absoluteArcSize=1;arcSize=8;fillColor=#f5f5f5;strokeColor=#666666;fontColor=#333333;" vertex="1" parent="1">
          <mxGeometry x="1090" y="340" width="310" height="30" as="geometry" />
        </mxCell>
      </root>
    </mxGraphModel>
  </diagram>
</mxfile>
